<mxfile host="app.diagrams.net" agent="Mozilla/5.0 (Windows NT 10.0; Win64; x64) AppleWebKit/537.36 (KHTML, like Gecko) Chrome/130.0.0.0 Safari/537.36" version="24.8.4">
  <diagram name="Сторінка-1" id="DnvNa-6Dt0wwoV9QTGiw">
    <mxGraphModel dx="1235" dy="665" grid="1" gridSize="10" guides="1" tooltips="1" connect="1" arrows="1" fold="1" page="1" pageScale="1" pageWidth="827" pageHeight="1169" math="0" shadow="0">
      <root>
        <mxCell id="0" />
        <mxCell id="1" parent="0" />
        <mxCell id="xF5tAgkylRHC9sRkhgvU-30" value="" style="rounded=0;whiteSpace=wrap;html=1;" vertex="1" parent="1">
          <mxGeometry x="570" y="50" width="390" height="430" as="geometry" />
        </mxCell>
        <mxCell id="xF5tAgkylRHC9sRkhgvU-31" style="rounded=0;orthogonalLoop=1;jettySize=auto;html=1;exitX=0.5;exitY=0.5;exitDx=0;exitDy=0;exitPerimeter=0;entryX=0;entryY=0.5;entryDx=0;entryDy=0;" edge="1" parent="1" source="xF5tAgkylRHC9sRkhgvU-33" target="xF5tAgkylRHC9sRkhgvU-57">
          <mxGeometry relative="1" as="geometry">
            <mxPoint x="600" y="200" as="targetPoint" />
          </mxGeometry>
        </mxCell>
        <mxCell id="xF5tAgkylRHC9sRkhgvU-32" style="rounded=0;orthogonalLoop=1;jettySize=auto;html=1;exitX=0.5;exitY=0.5;exitDx=0;exitDy=0;exitPerimeter=0;entryX=0;entryY=0.5;entryDx=0;entryDy=0;" edge="1" parent="1" source="xF5tAgkylRHC9sRkhgvU-33" target="xF5tAgkylRHC9sRkhgvU-46">
          <mxGeometry relative="1" as="geometry" />
        </mxCell>
        <mxCell id="xF5tAgkylRHC9sRkhgvU-33" value="User" style="shape=umlActor;verticalLabelPosition=bottom;verticalAlign=top;html=1;outlineConnect=0;" vertex="1" parent="1">
          <mxGeometry x="500" y="215" width="30" height="60" as="geometry" />
        </mxCell>
        <mxCell id="xF5tAgkylRHC9sRkhgvU-34" value="Audio Editor" style="text;html=1;align=center;verticalAlign=middle;whiteSpace=wrap;rounded=0;" vertex="1" parent="1">
          <mxGeometry x="695" y="50" width="110" height="30" as="geometry" />
        </mxCell>
        <mxCell id="xF5tAgkylRHC9sRkhgvU-46" value="Save audio segment" style="ellipse;whiteSpace=wrap;html=1;" vertex="1" parent="1">
          <mxGeometry x="600" y="330" width="120" height="40" as="geometry" />
        </mxCell>
        <mxCell id="xF5tAgkylRHC9sRkhgvU-47" style="rounded=0;orthogonalLoop=1;jettySize=auto;html=1;entryX=0;entryY=0.5;entryDx=0;entryDy=0;exitX=0.5;exitY=0.5;exitDx=0;exitDy=0;exitPerimeter=0;" edge="1" parent="1" source="xF5tAgkylRHC9sRkhgvU-33" target="xF5tAgkylRHC9sRkhgvU-58">
          <mxGeometry relative="1" as="geometry">
            <mxPoint x="525" y="245" as="sourcePoint" />
            <mxPoint x="600" y="270" as="targetPoint" />
          </mxGeometry>
        </mxCell>
        <mxCell id="xF5tAgkylRHC9sRkhgvU-48" style="rounded=0;orthogonalLoop=1;jettySize=auto;html=1;exitX=0.5;exitY=0.5;exitDx=0;exitDy=0;exitPerimeter=0;entryX=0;entryY=0.5;entryDx=0;entryDy=0;" edge="1" parent="1" source="xF5tAgkylRHC9sRkhgvU-33" target="xF5tAgkylRHC9sRkhgvU-56">
          <mxGeometry relative="1" as="geometry">
            <mxPoint x="600" y="130" as="targetPoint" />
          </mxGeometry>
        </mxCell>
        <mxCell id="xF5tAgkylRHC9sRkhgvU-49" style="rounded=0;orthogonalLoop=1;jettySize=auto;html=1;exitX=0;exitY=0;exitDx=0;exitDy=0;entryX=0.943;entryY=0.746;entryDx=0;entryDy=0;entryPerimeter=0;endArrow=block;endFill=0;" edge="1" parent="1" source="xF5tAgkylRHC9sRkhgvU-50" target="xF5tAgkylRHC9sRkhgvU-46">
          <mxGeometry relative="1" as="geometry" />
        </mxCell>
        <mxCell id="xF5tAgkylRHC9sRkhgvU-50" value="Convert to flac&amp;nbsp;" style="ellipse;whiteSpace=wrap;html=1;" vertex="1" parent="1">
          <mxGeometry x="750" y="380" width="120" height="40" as="geometry" />
        </mxCell>
        <mxCell id="xF5tAgkylRHC9sRkhgvU-52" style="rounded=0;orthogonalLoop=1;jettySize=auto;html=1;exitX=0;exitY=0.5;exitDx=0;exitDy=0;entryX=0.956;entryY=0.274;entryDx=0;entryDy=0;entryPerimeter=0;endArrow=block;endFill=0;" edge="1" parent="1" source="xF5tAgkylRHC9sRkhgvU-53" target="xF5tAgkylRHC9sRkhgvU-46">
          <mxGeometry relative="1" as="geometry">
            <mxPoint x="720" y="350" as="targetPoint" />
          </mxGeometry>
        </mxCell>
        <mxCell id="xF5tAgkylRHC9sRkhgvU-53" value="Convert to ogg" style="ellipse;whiteSpace=wrap;html=1;" vertex="1" parent="1">
          <mxGeometry x="770" y="330" width="120" height="40" as="geometry" />
        </mxCell>
        <mxCell id="xF5tAgkylRHC9sRkhgvU-54" style="rounded=0;orthogonalLoop=1;jettySize=auto;html=1;exitX=0.351;exitY=0.01;exitDx=0;exitDy=0;entryX=0.773;entryY=0.933;entryDx=0;entryDy=0;entryPerimeter=0;exitPerimeter=0;endArrow=block;endFill=0;" edge="1" parent="1" source="xF5tAgkylRHC9sRkhgvU-55" target="xF5tAgkylRHC9sRkhgvU-46">
          <mxGeometry relative="1" as="geometry">
            <mxPoint x="710" y="400" as="targetPoint" />
          </mxGeometry>
        </mxCell>
        <mxCell id="xF5tAgkylRHC9sRkhgvU-55" value="Convert to mp3&amp;nbsp;" style="ellipse;whiteSpace=wrap;html=1;" vertex="1" parent="1">
          <mxGeometry x="660" y="410" width="120" height="40" as="geometry" />
        </mxCell>
        <mxCell id="xF5tAgkylRHC9sRkhgvU-56" value="View audio in WAVE form" style="ellipse;whiteSpace=wrap;html=1;" vertex="1" parent="1">
          <mxGeometry x="610" y="135" width="170" height="40" as="geometry" />
        </mxCell>
        <mxCell id="xF5tAgkylRHC9sRkhgvU-70" style="rounded=0;orthogonalLoop=1;jettySize=auto;html=1;exitX=1;exitY=0.5;exitDx=0;exitDy=0;entryX=0;entryY=0.5;entryDx=0;entryDy=0;dashed=1;endArrow=none;endFill=0;startArrow=classic;startFill=1;" edge="1" parent="1" source="xF5tAgkylRHC9sRkhgvU-57" target="xF5tAgkylRHC9sRkhgvU-69">
          <mxGeometry relative="1" as="geometry" />
        </mxCell>
        <mxCell id="xF5tAgkylRHC9sRkhgvU-72" value="&amp;lt;&amp;lt;extend&amp;gt;&amp;gt;" style="edgeLabel;html=1;align=center;verticalAlign=middle;resizable=0;points=[];" vertex="1" connectable="0" parent="xF5tAgkylRHC9sRkhgvU-70">
          <mxGeometry x="0.0489" y="1" relative="1" as="geometry">
            <mxPoint as="offset" />
          </mxGeometry>
        </mxCell>
        <mxCell id="xF5tAgkylRHC9sRkhgvU-57" value="Add audio" style="ellipse;whiteSpace=wrap;html=1;" vertex="1" parent="1">
          <mxGeometry x="610" y="80" width="120" height="40" as="geometry" />
        </mxCell>
        <mxCell id="xF5tAgkylRHC9sRkhgvU-58" value="Edit audio" style="ellipse;whiteSpace=wrap;html=1;" vertex="1" parent="1">
          <mxGeometry x="590" y="225" width="120" height="40" as="geometry" />
        </mxCell>
        <mxCell id="xF5tAgkylRHC9sRkhgvU-60" value="Copy audio segment" style="ellipse;whiteSpace=wrap;html=1;" vertex="1" parent="1">
          <mxGeometry x="805" y="225" width="120" height="40" as="geometry" />
        </mxCell>
        <mxCell id="xF5tAgkylRHC9sRkhgvU-61" value="Paste audio segment" style="ellipse;whiteSpace=wrap;html=1;" vertex="1" parent="1">
          <mxGeometry x="740" y="275" width="120" height="40" as="geometry" />
        </mxCell>
        <mxCell id="xF5tAgkylRHC9sRkhgvU-62" value="Cut audio segment" style="ellipse;whiteSpace=wrap;html=1;" vertex="1" parent="1">
          <mxGeometry x="750" y="175" width="120" height="40" as="geometry" />
        </mxCell>
        <mxCell id="xF5tAgkylRHC9sRkhgvU-63" style="rounded=0;orthogonalLoop=1;jettySize=auto;html=1;exitX=1;exitY=0;exitDx=0;exitDy=0;entryX=0;entryY=0.5;entryDx=0;entryDy=0;dashed=1;" edge="1" parent="1" source="xF5tAgkylRHC9sRkhgvU-58" target="xF5tAgkylRHC9sRkhgvU-62">
          <mxGeometry relative="1" as="geometry">
            <mxPoint x="630" y="235" as="sourcePoint" />
            <mxPoint x="780" y="285" as="targetPoint" />
          </mxGeometry>
        </mxCell>
        <mxCell id="xF5tAgkylRHC9sRkhgvU-64" value="&amp;lt;&amp;lt;include&amp;gt;&amp;gt;" style="edgeLabel;html=1;align=center;verticalAlign=middle;resizable=0;points=[];" vertex="1" connectable="0" parent="xF5tAgkylRHC9sRkhgvU-63">
          <mxGeometry x="-0.2352" y="-2" relative="1" as="geometry">
            <mxPoint as="offset" />
          </mxGeometry>
        </mxCell>
        <mxCell id="xF5tAgkylRHC9sRkhgvU-65" style="rounded=0;orthogonalLoop=1;jettySize=auto;html=1;exitX=1;exitY=0.5;exitDx=0;exitDy=0;entryX=0;entryY=0.5;entryDx=0;entryDy=0;dashed=1;" edge="1" parent="1" source="xF5tAgkylRHC9sRkhgvU-58" target="xF5tAgkylRHC9sRkhgvU-60">
          <mxGeometry relative="1" as="geometry">
            <mxPoint x="712" y="241" as="sourcePoint" />
            <mxPoint x="740" y="215" as="targetPoint" />
          </mxGeometry>
        </mxCell>
        <mxCell id="xF5tAgkylRHC9sRkhgvU-66" value="&amp;lt;&amp;lt;include&amp;gt;&amp;gt;" style="edgeLabel;html=1;align=center;verticalAlign=middle;resizable=0;points=[];" vertex="1" connectable="0" parent="xF5tAgkylRHC9sRkhgvU-65">
          <mxGeometry x="-0.2352" y="-2" relative="1" as="geometry">
            <mxPoint as="offset" />
          </mxGeometry>
        </mxCell>
        <mxCell id="xF5tAgkylRHC9sRkhgvU-67" style="rounded=0;orthogonalLoop=1;jettySize=auto;html=1;exitX=1;exitY=1;exitDx=0;exitDy=0;entryX=0;entryY=0.5;entryDx=0;entryDy=0;dashed=1;" edge="1" parent="1" source="xF5tAgkylRHC9sRkhgvU-58" target="xF5tAgkylRHC9sRkhgvU-61">
          <mxGeometry relative="1" as="geometry">
            <mxPoint x="722" y="251" as="sourcePoint" />
            <mxPoint x="750" y="225" as="targetPoint" />
          </mxGeometry>
        </mxCell>
        <mxCell id="xF5tAgkylRHC9sRkhgvU-68" value="&amp;lt;&amp;lt;include&amp;gt;&amp;gt;" style="edgeLabel;html=1;align=center;verticalAlign=middle;resizable=0;points=[];" vertex="1" connectable="0" parent="xF5tAgkylRHC9sRkhgvU-67">
          <mxGeometry x="-0.2352" y="-2" relative="1" as="geometry">
            <mxPoint as="offset" />
          </mxGeometry>
        </mxCell>
        <mxCell id="xF5tAgkylRHC9sRkhgvU-69" value="Add multiple audios" style="ellipse;whiteSpace=wrap;html=1;" vertex="1" parent="1">
          <mxGeometry x="820" y="80" width="120" height="40" as="geometry" />
        </mxCell>
      </root>
    </mxGraphModel>
  </diagram>
</mxfile>
